<svg width="172" height="36" viewBox="0 0 172 36" fill="none" xmlns="http://www.w3.org/2000/svg">
<path fill-rule="evenodd" clip-rule="evenodd" d="M81.379 2.40637C83.8068 1.97954 86.1631 1.62385 88.5909 1.19702C88.5909 4.96735 88.5909 8.66653 88.5909 12.3657C89.5906 12.1523 90.5188 11.8678 91.4471 11.7966C93.8034 11.5121 96.0884 11.5121 98.3733 12.2234C100.515 12.9348 101.729 14.4999 102.086 16.634C102.301 17.8434 102.372 19.0527 102.372 20.2621C102.372 22.6808 102.372 25.0995 102.301 27.5182C102.158 29.8657 101.515 31.9287 99.5872 33.4938C98.3019 34.4897 96.8024 34.9877 95.2315 35.2722C92.0897 35.7702 88.8765 35.6991 85.7347 35.2722C84.4494 35.1299 83.1641 34.9165 81.8074 34.7743C81.4504 34.7031 81.3076 34.5608 81.3076 34.2763C81.3076 34.0629 81.3076 33.8495 81.3076 33.636C81.3076 23.5344 81.3076 13.3617 81.3076 3.26003C81.3076 2.90434 81.3076 2.69092 81.379 2.40637ZM88.5909 29.4389C90.019 29.5812 91.3757 29.6523 92.7324 29.4389C94.1605 29.1543 94.9459 28.3718 94.9459 26.8779C95.0173 24.6726 95.0887 22.3962 95.0173 20.1909C94.9459 18.6259 94.3033 17.9856 92.8038 17.7722C91.3757 17.5588 90.0904 17.9856 88.8051 18.5547C88.6623 18.6259 88.5909 18.9104 88.5909 19.0527C88.5909 21.0446 88.5909 23.1076 88.5909 25.0995C88.5909 26.5222 88.5909 27.945 88.5909 29.4389Z" fill="#0057FF"/>
<path fill-rule="evenodd" clip-rule="evenodd" d="M171.778 35.2011C171.278 35.2011 170.85 35.2011 170.422 35.2011C168.422 35.2011 166.423 35.2011 164.424 35.2011C163.995 35.2011 163.781 35.0588 163.495 34.7031C161.567 31.4308 159.568 28.1584 157.64 24.886C157.569 24.8149 157.497 24.7438 157.426 24.5304C157.426 28.1584 157.426 31.6442 157.426 35.1299C157.212 35.1299 156.998 35.1299 156.855 35.1299C154.784 35.1299 152.785 35.1299 150.714 35.1299C150.214 35.1299 150.071 34.9877 150.071 34.5608C150.071 32.2844 150.071 30.008 150.071 27.6604C150.071 19.4795 150.071 11.2275 150.071 3.04661C150.071 2.33523 150.071 2.33523 150.785 2.26409C152.785 1.9084 154.784 1.62385 156.783 1.26816C156.926 1.26816 157.14 1.26816 157.355 1.19702C157.355 8.09743 157.355 14.9978 157.355 21.8271C157.426 21.8271 157.426 21.8271 157.497 21.8982C157.712 21.6137 157.854 21.3291 158.069 21.0446C159.925 18.1279 161.71 15.2824 163.567 12.3657C163.781 12.01 164.067 11.7966 164.495 11.7966C166.637 11.7966 168.779 11.7966 170.921 11.7966C171.136 11.7966 171.421 11.7966 171.778 11.7966C171.636 12.01 171.564 12.2234 171.493 12.3657C169.279 15.7804 167.137 19.2661 164.923 22.6808C164.709 23.0365 164.638 23.321 164.923 23.7478C167.137 27.3759 169.351 31.0751 171.564 34.7743C171.636 34.9165 171.707 34.9877 171.778 35.2011Z" fill="#0057FF"/>
<path fill-rule="evenodd" clip-rule="evenodd" d="M78.3812 28.7273C78.3812 28.9407 78.3812 29.083 78.3812 29.2253C78.3812 30.8615 78.3812 32.4976 78.3812 34.1338C78.3812 34.4895 78.3097 34.6318 77.9527 34.7029C74.6681 35.4143 71.3835 35.6277 68.0275 35.4854C66.4566 35.4143 64.8857 35.0586 63.4576 34.4184C60.8156 33.209 59.3161 31.0749 58.8163 28.3005C58.6021 27.3045 58.602 26.2375 58.602 25.2415C58.602 23.4631 58.5306 21.6846 58.602 19.9062C58.6735 17.9143 59.2447 16.0647 60.6014 14.4997C61.7439 13.148 63.3148 12.4367 65.0285 12.081C67.9561 11.4407 70.8837 11.4407 73.7398 12.4367C76.6674 13.4326 78.4526 15.5667 78.8096 18.5545C79.0952 20.9021 79.0238 23.3208 79.1666 25.8106C78.8096 25.8106 78.5954 25.8106 78.3812 25.8106C74.4539 25.8106 70.4552 25.8106 66.528 25.8106C66.0281 25.8106 65.8853 25.9529 65.9567 26.3797C66.0281 26.7354 65.9567 27.0911 66.0281 27.4468C66.2424 28.6562 66.9564 29.3676 68.1703 29.4387C69.6698 29.5098 71.1693 29.581 72.6688 29.5098C74.4539 29.3676 76.239 29.083 78.0241 28.8696C78.1669 28.7273 78.2383 28.7273 78.3812 28.7273ZM68.8843 20.7598C69.3842 20.7598 69.884 20.7598 70.3124 20.7598C71.8833 20.7598 71.8833 20.7598 71.7405 19.1948C71.5977 18.1277 71.0265 17.3452 69.9554 17.2029C69.2413 17.0606 68.4559 17.0606 67.7419 17.2029C66.885 17.3452 66.2424 17.9143 66.0281 18.768C65.9567 19.2659 65.9567 19.835 65.9567 20.333C65.9567 20.6887 66.0995 20.7598 66.3852 20.7598C67.242 20.7598 68.0275 20.7598 68.8843 20.7598Z" fill="#0057FF"/>
<path fill-rule="evenodd" clip-rule="evenodd" d="M148.359 23.5344C148.287 25.1706 148.287 26.7356 148.073 28.3007C147.573 31.9287 145.431 34.2051 141.789 35.0588C138.862 35.7702 135.863 35.7702 132.935 34.8454C129.794 33.8494 128.008 31.6442 127.437 28.4429C127.223 27.2336 127.223 26.0242 127.223 24.8149C127.223 23.0364 127.152 21.3291 127.294 19.5507C127.651 15.4246 129.936 12.8637 134.078 12.01C136.934 11.4409 139.79 11.4409 142.575 12.3657C145.645 13.3616 147.43 15.5669 147.93 18.697C148.287 20.262 148.216 21.8982 148.359 23.5344ZM140.933 23.5344C140.933 22.3962 140.933 21.258 140.933 20.1198C140.933 19.0527 140.219 18.1279 139.148 17.8433C138.291 17.5588 137.434 17.5588 136.577 17.7722C135.363 18.0568 134.578 18.9104 134.578 20.0486C134.506 22.3962 134.506 24.6726 134.578 27.0202C134.578 28.1584 135.292 29.012 136.363 29.2966C137.005 29.4389 137.719 29.51 138.362 29.4389C140.004 29.2966 140.933 28.3007 140.933 26.6645C140.933 25.5974 140.933 24.6015 140.933 23.5344Z" fill="#0057FF"/>
<path fill-rule="evenodd" clip-rule="evenodd" d="M125.437 23.7477C125.294 25.2416 125.294 27.02 125.009 28.7274C124.366 32.2843 122.152 34.2762 118.725 35.0587C115.94 35.6989 113.155 35.6989 110.371 34.9164C107.086 33.9916 105.158 31.7863 104.515 28.514C104.373 27.7314 104.301 26.8778 104.301 26.0241C104.301 24.1034 104.23 22.1827 104.301 20.2619C104.373 17.7721 105.158 15.5668 107.086 13.8595C108.371 12.7213 109.942 12.1522 111.656 11.8676C114.441 11.4408 117.226 11.4408 119.939 12.4367C122.938 13.5038 124.652 15.7091 125.08 18.768C125.294 20.3331 125.294 21.8981 125.437 23.7477ZM111.585 23.5343C111.585 24.6014 111.513 25.5973 111.585 26.6644C111.585 26.8066 111.585 26.9489 111.585 27.1623C111.727 28.2294 112.227 29.0119 113.298 29.2965C114.012 29.4388 114.726 29.5099 115.44 29.5099C117.011 29.3676 117.94 28.3717 117.94 26.9489C117.94 24.7436 117.94 22.5383 117.94 20.3331C117.94 19.1948 117.226 18.2701 116.083 17.9144C115.155 17.6298 114.298 17.6298 113.37 17.9144C112.299 18.1989 111.585 19.0526 111.585 20.1908C111.585 21.2579 111.585 22.3961 111.585 23.5343Z" fill="#0057FF"/>
<path fill-rule="evenodd" clip-rule="evenodd" d="M30.0406 33.9916C28.6839 34.4185 27.3272 34.9164 26.0419 35.2721C24.471 35.6278 22.8287 35.6989 21.1864 35.2721C18.6158 34.5607 17.2591 32.7823 16.7593 30.2924C16.5451 29.0831 16.5451 27.8026 16.7593 26.5221C17.2591 24.2457 18.6872 22.8229 20.9722 22.3961C22.0432 22.1827 23.1143 22.1115 24.1854 22.0404C25.6135 21.9693 27.113 22.0404 28.5411 22.0404C28.9695 22.0404 29.1123 21.8981 29.1123 21.4713C29.1123 21.1156 29.0409 20.7599 29.1123 20.4042C29.1123 18.5546 28.2554 18.1278 26.7559 18.0567C24.3996 17.9855 22.0432 17.9855 19.6869 17.9144C19.4727 17.9144 19.2585 17.9144 18.9728 17.9144C19.0442 17.3453 19.0442 16.8473 19.1156 16.2782C19.2585 14.9266 19.4013 13.575 19.5441 12.1522C19.5441 12.0099 19.8297 11.7965 19.9011 11.7965C22.9001 11.7965 25.9705 11.7965 28.9695 11.9388C29.9692 11.9388 30.8974 12.2233 31.8257 12.5079C34.3963 13.2193 35.7529 15.0689 36.11 17.6298C36.2528 18.6969 36.3242 19.764 36.3242 20.8311C36.3242 25.3839 36.3242 29.9368 36.3242 34.4896C36.3242 34.9876 36.1814 35.1298 35.6815 35.1298C34.0392 35.1298 32.3969 35.1298 30.826 35.1298C30.3262 35.1298 30.1834 34.9164 30.112 34.4896C30.112 34.4185 30.0406 34.1339 30.0406 33.9916ZM26.8988 26.9489C26.3989 26.9489 25.8277 26.9489 25.3279 26.9489C24.2568 26.9489 23.8284 27.4469 23.8284 28.514C23.8284 29.7233 24.3996 30.2924 25.6135 30.3636C26.7559 30.4347 27.827 30.079 28.8267 29.5811C28.9695 29.5099 29.0409 29.2965 29.1123 29.0831C29.1123 28.514 29.1123 28.016 29.1123 27.4469C29.1123 27.0912 28.9695 27.0201 28.6839 27.0201C28.0412 26.9489 27.47 26.9489 26.8988 26.9489Z" fill="#0057FF"/>
<path fill-rule="evenodd" clip-rule="evenodd" d="M17.1869 0.556641C17.1869 1.9794 17.1869 3.25989 17.1869 4.61152C17.1869 5.18062 17.1869 5.67859 17.1869 6.2477C17.1869 6.60339 17.1155 6.67453 16.7585 6.67453C15.8302 6.67453 14.8305 6.67453 13.9023 6.67453C13.5452 6.67453 13.2596 6.74566 12.9026 6.8168C12.26 6.95908 11.9029 7.38591 11.9029 8.02615C11.8315 9.30664 11.9029 10.5871 11.9029 11.8676C13.6167 11.8676 15.4018 11.8676 17.2583 11.8676C17.1869 12.8636 17.1155 13.7172 16.9727 14.642C16.9013 15.5668 16.7585 16.4205 16.6871 17.3453C16.6871 17.7721 16.5442 17.9144 16.0444 17.9144C14.6163 17.9144 13.2596 17.9144 11.8315 17.9144C11.8315 23.6766 11.8315 29.3676 11.8315 35.1298C9.40377 35.1298 7.04742 35.1298 4.61966 35.1298C4.54825 34.9164 4.54825 34.703 4.54825 34.4184C4.54825 29.1542 4.54825 23.8188 4.54825 18.5546C4.54825 18.0566 4.47685 17.9144 3.90561 17.9144C2.97735 17.9855 1.97769 17.9144 0.97802 17.9144C0.97802 17.7009 0.97802 17.4875 0.97802 17.2741C0.97802 15.7091 0.97802 14.144 0.97802 12.6501C0.97802 11.7965 0.906615 11.8676 1.76347 11.8676C2.54892 11.8676 3.33437 11.8676 4.11983 11.8676C4.47685 11.9388 4.54825 11.7965 4.54825 11.4408C4.54825 10.018 4.54825 8.59526 4.61966 7.17249C4.69106 5.39404 5.1909 3.68672 6.54759 2.40623C7.54725 1.4103 8.83254 0.912332 10.1892 0.770055C12.4742 0.627779 14.8305 0.627779 17.1869 0.556641Z" fill="#0057FF"/>
<path fill-rule="evenodd" clip-rule="evenodd" d="M56.6028 18.4123C55.4604 18.1989 54.3893 18.0566 53.3182 17.9144C51.4617 17.6298 49.6766 17.4875 47.8201 17.8432C46.6776 18.0566 45.9635 18.8392 45.9635 19.9774C45.8921 22.3961 45.8921 24.7436 45.9635 27.1623C45.9635 28.3005 46.6062 29.0831 47.7487 29.2253C49.1054 29.3676 50.462 29.4388 51.7473 29.3676C53.2468 29.2965 54.7463 28.9408 56.2458 28.7274C56.3172 28.7274 56.46 28.7274 56.6028 28.7274C56.6028 28.8697 56.6742 29.0119 56.6742 29.1542C56.6742 30.7904 56.6742 32.4977 56.6742 34.1339C56.6742 34.4896 56.6028 34.6318 56.2458 34.703C53.5324 35.2721 50.8191 35.6989 48.1057 35.4855C45.6779 35.3432 43.393 34.7741 41.465 33.0668C39.8941 31.644 38.9659 29.7944 38.8231 27.7314C38.6803 25.1705 38.6089 22.6095 38.7517 20.0485C38.8945 17.1318 40.1084 14.7131 42.6789 13.1481C44.107 12.2945 45.6779 11.8676 47.3916 11.6542C50.3906 11.2985 53.3182 11.7253 56.2458 12.3656C56.3886 12.4367 56.6742 12.579 56.6742 12.7213C56.6742 14.642 56.6028 16.4916 56.6028 18.4123Z" fill="#0057FF"/>
</svg>
