<svg width="123" height="25" viewBox="0 0 123 25" fill="none" xmlns="http://www.w3.org/2000/svg">
<path fill-rule="evenodd" clip-rule="evenodd" d="M57.9299 1.3211C59.664 1.01622 61.3471 0.762153 63.0812 0.457275C63.0812 3.15036 63.0812 5.79264 63.0812 8.43492C63.7953 8.28248 64.4583 8.07923 65.1214 8.02841C66.8045 7.82516 68.4366 7.82516 70.0687 8.33329C71.5988 8.84142 72.4659 9.95931 72.7209 11.4837C72.8739 12.3475 72.9249 13.2113 72.9249 14.0752C72.9249 15.8028 72.9249 17.5304 72.8739 19.2581C72.7719 20.9349 72.3129 22.4085 70.9358 23.5264C70.0177 24.2378 68.9466 24.5935 67.8246 24.7967C65.5804 25.1524 63.2853 25.1016 61.0411 24.7967C60.1231 24.6951 59.205 24.5426 58.2359 24.441C57.9809 24.3902 57.8789 24.2886 57.8789 24.0853C57.8789 23.9329 57.8789 23.7804 57.8789 23.628C57.8789 16.4126 57.8789 9.1463 57.8789 1.93085C57.8789 1.67679 57.8789 1.52435 57.9299 1.3211ZM63.0812 20.63C64.1013 20.7317 65.0704 20.7825 66.0394 20.63C67.0595 20.4268 67.6205 19.8678 67.6205 18.8008C67.6716 17.2256 67.7226 15.5996 67.6715 14.0243C67.6205 12.9065 67.1615 12.4491 66.0904 12.2967C65.0704 12.1443 64.1523 12.4491 63.2343 12.8556C63.1323 12.9065 63.0812 13.1097 63.0812 13.2113C63.0812 14.6341 63.0812 16.1077 63.0812 17.5304C63.0812 18.5467 63.0812 19.563 63.0812 20.63Z" fill="#4F4F4F"/>
<path fill-rule="evenodd" clip-rule="evenodd" d="M122.5 24.7459C122.143 24.7459 121.837 24.7459 121.531 24.7459C120.103 24.7459 118.675 24.7459 117.247 24.7459C116.941 24.7459 116.788 24.6443 116.584 24.3902C115.207 22.0528 113.779 19.7154 112.401 17.378C112.35 17.3272 112.299 17.2764 112.248 17.1239C112.248 19.7154 112.248 22.2052 112.248 24.6951C112.095 24.6951 111.942 24.6951 111.84 24.6951C110.361 24.6951 108.933 24.6951 107.454 24.6951C107.097 24.6951 106.995 24.5935 106.995 24.2886C106.995 22.6626 106.995 21.0365 106.995 19.3597C106.995 13.5162 106.995 7.62191 106.995 1.77841C106.995 1.27028 106.995 1.27028 107.505 1.21947C108.933 0.965406 110.361 0.762153 111.789 0.508088C111.891 0.508088 112.044 0.508088 112.197 0.457275C112.197 5.38614 112.197 10.315 112.197 15.193C112.248 15.193 112.248 15.193 112.299 15.2439C112.452 15.0406 112.554 14.8374 112.707 14.6341C114.034 12.5508 115.309 10.5183 116.635 8.43492C116.788 8.18085 116.992 8.02841 117.298 8.02841C118.828 8.02841 120.358 8.02841 121.888 8.02841C122.041 8.02841 122.245 8.02841 122.5 8.02841C122.398 8.18085 122.347 8.33329 122.296 8.43492C120.715 10.8739 119.185 13.3638 117.604 15.8028C117.451 16.0569 117.4 16.2601 117.604 16.565C119.185 19.1565 120.766 21.7987 122.347 24.441C122.398 24.5426 122.449 24.5935 122.5 24.7459Z" fill="#4F4F4F"/>
<path fill-rule="evenodd" clip-rule="evenodd" d="M55.7883 20.122C55.7883 20.2744 55.7883 20.376 55.7883 20.4777C55.7883 21.6464 55.7883 22.8151 55.7883 23.9838C55.7883 24.2378 55.7373 24.3395 55.4823 24.3903C53.1361 24.8984 50.79 25.0508 48.3928 24.9492C47.2707 24.8984 46.1487 24.6443 45.1286 24.187C43.2415 23.3232 42.1704 21.7988 41.8134 19.8171C41.6604 19.1057 41.6604 18.3435 41.6604 17.6321C41.6604 16.3618 41.6094 15.0915 41.6604 13.8212C41.7114 12.3984 42.1194 11.0773 43.0885 9.95937C43.9045 8.99393 45.0266 8.4858 46.2507 8.23173C48.3418 7.77442 50.4329 7.77442 52.4731 8.4858C54.5642 9.19718 55.8393 10.7216 56.0943 12.8557C56.2983 14.5325 56.2473 16.2602 56.3493 18.0386C56.0943 18.0386 55.9413 18.0386 55.7883 18.0386C52.9831 18.0386 50.1269 18.0386 47.3217 18.0386C46.9647 18.0386 46.8627 18.1403 46.9137 18.4451C46.9647 18.6992 46.9137 18.9533 46.9647 19.2073C47.1177 20.0712 47.6278 20.5793 48.4948 20.6301C49.5659 20.6809 50.637 20.7317 51.708 20.6809C52.9831 20.5793 54.2582 20.376 55.5333 20.2236C55.6353 20.122 55.6863 20.122 55.7883 20.122ZM49.0048 14.4309C49.3619 14.4309 49.7189 14.4309 50.0249 14.4309C51.147 14.4309 51.147 14.4309 51.045 13.313C50.943 12.5508 50.5349 11.9919 49.7699 11.8903C49.2599 11.7886 48.6988 11.7886 48.1888 11.8903C47.5768 11.9919 47.1177 12.3984 46.9647 13.0082C46.9137 13.3638 46.9137 13.7703 46.9137 14.126C46.9137 14.3801 47.0157 14.4309 47.2197 14.4309C47.8318 14.4309 48.3928 14.4309 49.0048 14.4309Z" fill="#4F4F4F"/>
<path fill-rule="evenodd" clip-rule="evenodd" d="M105.771 16.4127C105.72 17.5814 105.72 18.6992 105.567 19.8171C105.21 22.4086 103.68 24.0346 101.079 24.6444C98.9879 25.1525 96.8458 25.1525 94.7546 24.4919C92.5105 23.7805 91.2354 22.2053 90.8274 19.9188C90.6744 19.0549 90.6744 18.1911 90.6744 17.3273C90.6744 16.057 90.6234 14.8374 90.7254 13.5671C90.9804 10.62 92.6125 8.7907 95.5707 8.18095C97.6108 7.77444 99.651 7.77444 101.64 8.43501C103.833 9.14639 105.108 10.7216 105.465 12.9574C105.72 14.0753 105.669 15.244 105.771 16.4127ZM100.467 16.4127C100.467 15.5996 100.467 14.7866 100.467 13.9736C100.467 13.2114 99.957 12.5509 99.1919 12.3476C98.5799 12.1444 97.9678 12.1444 97.3558 12.2968C96.4888 12.5001 95.9277 13.1098 95.9277 13.9228C95.8767 15.5996 95.8767 17.2257 95.9277 18.9025C95.9277 19.7155 96.4378 20.3253 97.2028 20.5285C97.6618 20.6301 98.1719 20.6809 98.6309 20.6301C99.804 20.5285 100.467 19.8171 100.467 18.6484C100.467 17.8862 100.467 17.1748 100.467 16.4127Z" fill="#4F4F4F"/>
<path fill-rule="evenodd" clip-rule="evenodd" d="M89.399 16.565C89.297 17.6321 89.2969 18.9024 89.0929 20.1219C88.6339 22.6626 87.0528 24.0854 84.6046 24.6443C82.6155 25.1016 80.6264 25.1016 78.6372 24.5427C76.2911 23.8821 74.914 22.3069 74.455 19.9695C74.353 19.4106 74.302 18.8008 74.302 18.1911C74.302 16.8191 74.251 15.4472 74.302 14.0752C74.353 12.2967 74.914 10.7215 76.2911 9.50203C77.2092 8.68902 78.3312 8.28252 79.5553 8.07926C81.5444 7.77439 83.5336 7.77439 85.4717 8.48577C87.6138 9.24796 88.8379 10.8232 89.1439 13.0081C89.297 14.126 89.297 15.2439 89.399 16.565ZM79.5043 16.4126C79.5043 17.1748 79.4533 17.8862 79.5043 18.6484C79.5043 18.75 79.5043 18.8516 79.5043 19.0041C79.6063 19.7663 79.9633 20.3252 80.7284 20.5285C81.2384 20.6301 81.7485 20.6809 82.2585 20.6809C83.3806 20.5793 84.0436 19.8679 84.0436 18.8516C84.0436 17.2764 84.0436 15.7012 84.0436 14.126C84.0436 13.313 83.5336 12.6524 82.7175 12.3984C82.0545 12.1951 81.4424 12.1951 80.7794 12.3984C80.0143 12.6016 79.5043 13.2114 79.5043 14.0244C79.5043 14.7866 79.5043 15.5996 79.5043 16.4126Z" fill="#4F4F4F"/>
<path fill-rule="evenodd" clip-rule="evenodd" d="M21.2586 23.8822C20.2895 24.1871 19.3205 24.5428 18.4024 24.7969C17.2803 25.0509 16.1073 25.1017 14.9342 24.7969C13.0981 24.2887 12.129 23.0184 11.772 21.2399C11.619 20.3761 11.619 19.4615 11.772 18.5469C12.129 16.9208 13.1491 15.9046 14.7812 15.5997C15.5462 15.4473 16.3113 15.3965 17.0763 15.3456C18.0964 15.2948 19.1675 15.3456 20.1875 15.3456C20.4936 15.3456 20.5956 15.244 20.5956 14.9391C20.5956 14.6851 20.5446 14.431 20.5956 14.1769C20.5956 12.8558 19.9835 12.5509 18.9125 12.5001C17.2293 12.4493 15.5462 12.4493 13.8631 12.3985C13.7101 12.3985 13.5571 12.3985 13.3531 12.3985C13.4041 11.992 13.4041 11.6363 13.4551 11.2298C13.5571 10.2643 13.6591 9.29889 13.7611 8.28263C13.7611 8.181 13.9651 8.02856 14.0161 8.02856C16.1583 8.02856 18.3514 8.02856 20.4936 8.13019C21.2076 8.13019 21.8706 8.33344 22.5337 8.53669C24.3698 9.04482 25.3389 10.366 25.5939 12.1952C25.6959 12.9574 25.7469 13.7196 25.7469 14.4818C25.7469 17.7338 25.7469 20.9859 25.7469 24.2379C25.7469 24.5936 25.6449 24.6952 25.2879 24.6952C24.1148 24.6952 22.9417 24.6952 21.8196 24.6952C21.4626 24.6952 21.3606 24.5428 21.3096 24.2379C21.3096 24.1871 21.2586 23.9838 21.2586 23.8822ZM19.0145 18.8517C18.6574 18.8517 18.2494 18.8517 17.8924 18.8517C17.1273 18.8517 16.8213 19.2074 16.8213 19.9696C16.8213 20.8334 17.2293 21.2399 18.0964 21.2908C18.9125 21.3416 19.6775 21.0875 20.3915 20.7318C20.4936 20.681 20.5446 20.5286 20.5956 20.3761C20.5956 19.9696 20.5956 19.6139 20.5956 19.2074C20.5956 18.9534 20.4936 18.9025 20.2895 18.9025C19.8305 18.8517 19.4225 18.8517 19.0145 18.8517Z" fill="#4F4F4F"/>
<path fill-rule="evenodd" clip-rule="evenodd" d="M12.0778 0C12.0778 1.01626 12.0778 1.93089 12.0778 2.89634C12.0778 3.30285 12.0778 3.65854 12.0778 4.06504C12.0778 4.31911 12.0268 4.36992 11.7718 4.36992C11.1088 4.36992 10.3947 4.36992 9.73167 4.36992C9.47665 4.36992 9.27264 4.42073 9.01762 4.47154C8.55859 4.57317 8.30358 4.87805 8.30358 5.33537C8.25257 6.25 8.30358 7.16463 8.30358 8.07927C9.52766 8.07927 10.8027 8.07927 12.1288 8.07927C12.0778 8.79065 12.0268 9.40041 11.9248 10.061C11.8738 10.7215 11.7718 11.3313 11.7208 11.9919C11.7208 12.2967 11.6188 12.3984 11.2618 12.3984C10.2417 12.3984 9.27264 12.3984 8.25257 12.3984C8.25257 16.5142 8.25257 20.5793 8.25257 24.6951C6.51846 24.6951 4.83535 24.6951 3.10124 24.6951C3.05023 24.5427 3.05023 24.3902 3.05023 24.187C3.05023 20.4268 3.05023 16.6159 3.05023 12.8557C3.05023 12.5 2.99923 12.3984 2.5912 12.3984C1.92816 12.4492 1.21411 12.3984 0.500064 12.3984C0.500064 12.2459 0.500064 12.0935 0.500064 11.9411C0.500064 10.8232 0.500064 9.70528 0.500064 8.63821C0.500064 8.02845 0.449061 8.07927 1.0611 8.07927C1.62214 8.07927 2.18317 8.07927 2.74421 8.07927C2.99923 8.13008 3.05023 8.02846 3.05023 7.77439C3.05023 6.75813 3.05023 5.74187 3.10124 4.72561C3.15224 3.45528 3.50926 2.23577 4.47833 1.32114C5.19237 0.609756 6.11043 0.254065 7.0795 0.152439C8.7116 0.050813 10.3947 0.050813 12.0778 0Z" fill="#4F4F4F"/>
<path fill-rule="evenodd" clip-rule="evenodd" d="M40.2322 12.7541C39.4162 12.6016 38.6511 12.5 37.8861 12.3984C36.56 12.1951 35.2849 12.0935 33.9588 12.3475C33.1428 12.5 32.6327 13.0589 32.6327 13.8719C32.5817 15.5996 32.5817 17.2764 32.6327 19.0041C32.6327 19.8171 33.0918 20.376 33.9078 20.4776C34.8769 20.5793 35.8459 20.6301 36.764 20.5793C37.8351 20.5284 38.9061 20.2744 39.9772 20.1219C40.0282 20.1219 40.1302 20.1219 40.2322 20.1219C40.2322 20.2236 40.2832 20.3252 40.2832 20.4268C40.2832 21.5955 40.2832 22.815 40.2832 23.9837C40.2832 24.2378 40.2322 24.3394 39.9772 24.3902C38.0391 24.7967 36.1009 25.1016 34.1628 24.9492C32.4287 24.8475 30.7966 24.441 29.4195 23.2215C28.2974 22.2053 27.6344 20.8841 27.5324 19.4106C27.4304 17.5813 27.3794 15.752 27.4814 13.9227C27.5834 11.8394 28.4504 10.1118 30.2866 8.99389C31.3066 8.38413 32.4287 8.07925 33.6528 7.92682C35.7949 7.67275 37.8861 7.97763 39.9772 8.43495C40.0792 8.48576 40.2832 8.58738 40.2832 8.68901C40.2832 10.061 40.2322 11.3821 40.2322 12.7541Z" fill="#4F4F4F"/>
</svg>
