<svg width="30" height="30" viewBox="0 0 30 30" fill="none" xmlns="http://www.w3.org/2000/svg">
<path d="M9.13775 0.0560303H21.446C26.1349 0.0560303 29.9446 3.86574 29.9446 8.55462V20.8629C29.9446 23.1169 29.0492 25.2785 27.4555 26.8723C25.8617 28.4661 23.7 29.3615 21.446 29.3615H9.13775C4.44887 29.3615 0.63916 25.5518 0.63916 20.8629V8.55462C0.63916 6.30065 1.53454 4.139 3.12834 2.54521C4.72213 0.951415 6.88378 0.0560303 9.13775 0.0560303ZM8.84469 2.98658C7.44568 2.98658 6.10397 3.54233 5.11472 4.53159C4.12546 5.52084 3.56971 6.86255 3.56971 8.26156V21.156C3.56971 24.0719 5.9288 26.431 8.84469 26.431H21.7391C23.1381 26.431 24.4798 25.8752 25.4691 24.886C26.4583 23.8967 27.0141 22.555 27.0141 21.156V8.26156C27.0141 5.34567 24.655 2.98658 21.7391 2.98658H8.84469ZM22.9846 5.18449C23.4704 5.18449 23.9362 5.37746 24.2797 5.72095C24.6232 6.06444 24.8162 6.53031 24.8162 7.01608C24.8162 7.50185 24.6232 7.96772 24.2797 8.31121C23.9362 8.6547 23.4704 8.84767 22.9846 8.84767C22.4988 8.84767 22.0329 8.6547 21.6895 8.31121C21.346 7.96772 21.153 7.50185 21.153 7.01608C21.153 6.53031 21.346 6.06444 21.6895 5.72095C22.0329 5.37746 22.4988 5.18449 22.9846 5.18449ZM15.2919 7.3824C17.235 7.3824 19.0985 8.15428 20.4724 9.52824C21.8464 10.9022 22.6183 12.7657 22.6183 14.7088C22.6183 16.6518 21.8464 18.5153 20.4724 19.8893C19.0985 21.2633 17.235 22.0351 15.2919 22.0351C13.3488 22.0351 11.4853 21.2633 10.1114 19.8893C8.73741 18.5153 7.96553 16.6518 7.96553 14.7088C7.96553 12.7657 8.73741 10.9022 10.1114 9.52824C11.4853 8.15428 13.3488 7.3824 15.2919 7.3824ZM15.2919 10.3129C14.1261 10.3129 13.008 10.7761 12.1836 11.6005C11.3592 12.4248 10.8961 13.5429 10.8961 14.7088C10.8961 15.8746 11.3592 16.9927 12.1836 17.8171C13.008 18.6415 14.1261 19.1046 15.2919 19.1046C16.4577 19.1046 17.5758 18.6415 18.4002 17.8171C19.2246 16.9927 19.6877 15.8746 19.6877 14.7088C19.6877 13.5429 19.2246 12.4248 18.4002 11.6005C17.5758 10.7761 16.4577 10.3129 15.2919 10.3129Z" fill="#4F4F4F"/>
</svg>
