<svg width="835" height="250" viewBox="0 0 835 250" fill="none" xmlns="http://www.w3.org/2000/svg">
<path d="M202.309 145.018L196.609 150.018C195.309 148.718 193.409 147.318 191.409 145.818C188.709 147.818 186.009 149.518 183.309 150.818C181.909 149.418 179.009 146.818 177.109 145.518C179.709 144.518 182.309 143.118 184.709 141.618C182.809 140.518 181.109 139.518 179.309 138.618L184.609 134.018C186.509 134.918 188.609 136.018 190.709 137.218C192.009 135.918 193.309 134.618 194.309 133.218L202.109 135.518C200.709 137.418 199.009 139.318 197.109 141.018C199.109 142.418 200.909 143.818 202.309 145.018ZM165.409 164.918L165.609 168.418H181.809C180.709 167.118 178.809 165.218 177.309 163.818V164.918H165.409ZM158.409 177.018V188.918H147.109V168.418H154.609L152.809 138.718C158.809 137.718 167.709 135.018 173.009 133.118L177.809 140.018C173.909 141.518 168.909 142.818 164.209 143.818L164.409 146.718H177.109V154.118H164.809L165.009 157.518H177.309V162.618C179.709 161.418 182.109 160.218 184.309 158.818C182.409 157.618 180.509 156.518 178.709 155.518L184.209 150.818C186.209 151.818 188.309 153.018 190.409 154.218C191.909 152.818 193.309 151.418 194.409 150.018L202.209 152.318C200.709 154.418 198.909 156.418 196.909 158.318C199.309 159.918 201.409 161.418 202.909 162.918L197.009 168.118C195.509 166.618 193.509 165.018 191.209 163.218C188.509 165.218 185.809 166.918 183.109 168.418H215.509L215.909 164.918H204.109V157.518H216.609L216.809 154.118H204.609V146.718H217.309L217.509 143.418H204.009V135.918H229.109C228.609 146.418 227.909 159.118 227.009 168.418H234.409V188.918H222.609V177.018H158.409ZM235.709 198.318V207.718H197.509V214.918C197.509 220.218 196.309 222.818 192.209 224.418C188.109 225.818 182.609 225.918 175.109 225.918C174.609 222.718 172.909 218.718 171.509 215.918C176.209 216.118 182.209 216.118 183.709 216.018C185.309 216.018 185.809 215.718 185.809 214.518V207.718H145.309V198.318H185.809V195.418C189.409 194.018 193.209 191.818 196.809 189.618H164.709V181.318H208.209L210.709 180.718L217.409 186.818C211.909 190.818 205.109 194.918 198.309 198.318H235.709ZM272.909 156.418L275.509 164.418C267.309 169.118 258.509 174.018 251.209 177.718L247.009 168.418C253.409 165.718 263.309 161.118 272.909 156.418ZM311.309 198.918V193.218H268.509V198.918H311.309ZM268.509 213.718H311.309V207.818H268.509V213.718ZM328.809 136.318V168.418C328.809 173.318 328.009 175.818 324.809 177.418C321.709 178.818 317.109 178.918 311.209 178.918C310.909 176.018 309.909 172.218 308.709 169.518C311.909 169.618 315.309 169.618 316.409 169.618C317.509 169.618 317.809 169.318 317.809 168.318V146.018H298.109C302.809 147.918 308.709 150.518 312.009 152.118L307.309 159.018L315.009 155.318L317.509 163.318C309.409 167.918 300.809 172.618 293.509 176.518L295.909 176.818C294.609 179.418 293.209 181.918 292.009 184.218H323.709V226.318H311.309V222.718H268.509V226.318H256.709V184.218H280.209C281.009 182.118 281.709 179.818 282.309 177.818C279.409 178.918 274.909 179.018 269.509 179.018C269.209 176.118 268.209 172.318 267.009 169.618C270.209 169.718 273.609 169.718 274.709 169.718C275.709 169.718 276.109 169.418 276.109 168.418V146.118H256.409C261.109 148.018 267.009 150.618 270.209 152.218L264.809 160.118C261.509 158.018 254.709 154.718 249.809 152.518L254.509 146.118H247.309V136.418H287.009V168.518C287.009 171.718 286.709 173.918 285.609 175.318L292.709 176.418L288.709 167.518C293.209 165.618 299.409 162.818 306.009 159.618C302.409 157.518 296.109 154.518 291.509 152.418L296.209 146.018H290.109V136.318H328.809ZM433.909 180.918V193.018H394.609V226.018H382.209V193.018H343.309V180.918H382.209V150.618H348.509V138.818H428.109V150.618H394.609V180.918H433.909ZM354.609 157.018L365.509 153.818C368.809 160.218 372.409 168.618 373.509 174.218L361.909 177.818C360.909 172.518 357.809 163.718 354.609 157.018ZM413.009 177.618L402.609 174.618C405.809 168.818 409.409 160.018 411.309 153.518L424.009 156.718C420.409 164.418 416.309 172.518 413.009 177.618ZM508.209 193.418H465.809V209.418H508.209V193.418ZM453.609 225.918V182.018H521.009V225.818H508.209V220.818H465.809V225.918H453.609ZM495.509 148.018L504.809 141.818C514.009 150.418 525.909 162.718 531.109 171.118L521.009 178.418C519.709 176.218 517.909 173.618 515.809 170.818C462.709 173.418 455.609 173.618 450.309 175.418C449.709 173.018 447.809 167.118 446.409 164.018C449.009 163.318 451.409 161.418 454.709 158.218C458.209 155.118 469.109 143.018 475.909 131.018L487.909 136.118C481.609 145.418 473.709 154.318 466.109 161.618L507.109 160.318C503.209 155.918 499.209 151.718 495.509 148.018Z" fill="white"/>
<path d="M567.794 154.546V160.227H550.962V154.546H567.794ZM554.815 181.818V152.575C554.815 150.598 555.199 148.959 555.969 147.656C556.75 146.354 557.815 145.378 559.165 144.727C560.514 144.076 562.047 143.75 563.763 143.75C564.924 143.75 565.983 143.839 566.942 144.017C567.912 144.194 568.634 144.354 569.108 144.496L567.759 150.178C567.463 150.083 567.096 149.994 566.658 149.911C566.232 149.829 565.794 149.787 565.344 149.787C564.231 149.787 563.456 150.048 563.018 150.568C562.58 151.077 562.361 151.793 562.361 152.717V181.818H554.815ZM581.261 182.351C578.503 182.351 576.118 181.765 574.105 180.593C572.105 179.41 570.56 177.764 569.471 175.657C568.382 173.538 567.838 171.082 567.838 168.289C567.838 165.471 568.382 163.009 569.471 160.902C570.56 158.783 572.105 157.138 574.105 155.966C576.118 154.782 578.503 154.191 581.261 154.191C584.019 154.191 586.398 154.782 588.399 155.966C590.411 157.138 591.962 158.783 593.051 160.902C594.14 163.009 594.684 165.471 594.684 168.289C594.684 171.082 594.14 173.538 593.051 175.657C591.962 177.764 590.411 179.41 588.399 180.593C586.398 181.765 584.019 182.351 581.261 182.351ZM581.296 176.492C582.551 176.492 583.599 176.137 584.439 175.426C585.28 174.704 585.913 173.722 586.339 172.479C586.777 171.236 586.996 169.821 586.996 168.235C586.996 166.649 586.777 165.235 586.339 163.992C585.913 162.749 585.28 161.766 584.439 161.044C583.599 160.322 582.551 159.961 581.296 159.961C580.03 159.961 578.964 160.322 578.1 161.044C577.248 161.766 576.603 162.749 576.165 163.992C575.739 165.235 575.526 166.649 575.526 168.235C575.526 169.821 575.739 171.236 576.165 172.479C576.603 173.722 577.248 174.704 578.1 175.426C578.964 176.137 580.03 176.492 581.296 176.492ZM597.102 181.818V154.546H604.436V159.304H604.72C605.217 157.611 606.051 156.333 607.223 155.469C608.395 154.593 609.744 154.155 611.271 154.155C611.65 154.155 612.059 154.179 612.497 154.226C612.935 154.273 613.319 154.338 613.651 154.421V161.133C613.296 161.026 612.804 160.932 612.177 160.849C611.55 160.766 610.976 160.725 610.455 160.725C609.342 160.725 608.348 160.967 607.472 161.453C606.608 161.926 605.921 162.589 605.412 163.441C604.915 164.293 604.666 165.276 604.666 166.389V181.818H597.102ZM624.276 181.818V145.455H648.779V151.793H631.964V160.458H647.518V166.797H631.964V175.48H648.85V181.818H624.276ZM677.675 154.546L668.14 181.818H659.618L650.083 154.546H658.073L663.737 174.059H664.021L669.667 154.546H677.675ZM690.596 182.351C687.79 182.351 685.376 181.783 683.352 180.646C681.339 179.498 679.789 177.877 678.7 175.781C677.611 173.674 677.066 171.183 677.066 168.306C677.066 165.501 677.611 163.039 678.7 160.92C679.789 158.801 681.321 157.15 683.298 155.966C685.287 154.782 687.619 154.191 690.294 154.191C692.093 154.191 693.768 154.481 695.319 155.061C696.881 155.629 698.243 156.487 699.403 157.635C700.575 158.783 701.486 160.227 702.137 161.968C702.788 163.696 703.114 165.72 703.114 168.04V170.117H680.085V165.43H695.994C695.994 164.341 695.757 163.376 695.283 162.536C694.81 161.695 694.153 161.038 693.312 160.565C692.484 160.079 691.519 159.837 690.418 159.837C689.27 159.837 688.252 160.103 687.364 160.636C686.488 161.157 685.802 161.861 685.305 162.749C684.808 163.625 684.553 164.601 684.541 165.678V170.135C684.541 171.485 684.79 172.651 685.287 173.633C685.796 174.615 686.512 175.373 687.435 175.906C688.359 176.438 689.454 176.705 690.72 176.705C691.561 176.705 692.33 176.586 693.028 176.35C693.727 176.113 694.325 175.758 694.822 175.284C695.319 174.811 695.698 174.231 695.958 173.544L702.954 174.006C702.599 175.687 701.871 177.155 700.77 178.409C699.681 179.652 698.272 180.623 696.544 181.321C694.828 182.008 692.845 182.351 690.596 182.351ZM705.55 181.818V154.546H712.883V159.304H713.167C713.664 157.611 714.499 156.333 715.67 155.469C716.842 154.593 718.192 154.155 719.719 154.155C720.098 154.155 720.506 154.179 720.944 154.226C721.382 154.273 721.767 154.338 722.098 154.421V161.133C721.743 161.026 721.252 160.932 720.624 160.849C719.997 160.766 719.423 160.725 718.902 160.725C717.789 160.725 716.795 160.967 715.919 161.453C715.055 161.926 714.368 162.589 713.859 163.441C713.362 164.293 713.114 165.276 713.114 166.389V181.818H705.55ZM729.009 192.046C728.05 192.046 727.15 191.969 726.31 191.815C725.481 191.673 724.794 191.489 724.25 191.264L725.955 185.618C726.842 185.89 727.641 186.038 728.352 186.062C729.074 186.086 729.695 185.92 730.216 185.565C730.749 185.21 731.181 184.606 731.512 183.754L731.956 182.6L722.173 154.546H730.127L735.773 174.574H736.058L741.757 154.546H749.765L739.165 184.766C738.656 186.234 737.963 187.512 737.087 188.601C736.223 189.702 735.128 190.548 733.803 191.14C732.477 191.744 730.879 192.046 729.009 192.046ZM762.579 182.351C759.821 182.351 757.436 181.765 755.424 180.593C753.423 179.41 751.878 177.764 750.789 175.657C749.7 173.538 749.156 171.082 749.156 168.289C749.156 165.471 749.7 163.009 750.789 160.902C751.878 158.783 753.423 157.138 755.424 155.966C757.436 154.782 759.821 154.191 762.579 154.191C765.337 154.191 767.716 154.782 769.717 155.966C771.729 157.138 773.28 158.783 774.369 160.902C775.458 163.009 776.002 165.471 776.002 168.289C776.002 171.082 775.458 173.538 774.369 175.657C773.28 177.764 771.729 179.41 769.717 180.593C767.716 181.765 765.337 182.351 762.579 182.351ZM762.615 176.492C763.869 176.492 764.917 176.137 765.757 175.426C766.598 174.704 767.231 173.722 767.657 172.479C768.095 171.236 768.314 169.821 768.314 168.235C768.314 166.649 768.095 165.235 767.657 163.992C767.231 162.749 766.598 161.766 765.757 161.044C764.917 160.322 763.869 159.961 762.615 159.961C761.348 159.961 760.283 160.322 759.419 161.044C758.566 161.766 757.921 162.749 757.483 163.992C757.057 165.235 756.844 166.649 756.844 168.235C756.844 169.821 757.057 171.236 757.483 172.479C757.921 173.722 758.566 174.704 759.419 175.426C760.283 176.137 761.348 176.492 762.615 176.492ZM785.985 166.051V181.818H778.421V154.546H785.63V159.357H785.949C786.553 157.771 787.565 156.517 788.985 155.593C790.406 154.658 792.128 154.191 794.152 154.191C796.046 154.191 797.698 154.605 799.106 155.433C800.515 156.262 801.61 157.446 802.391 158.985C803.172 160.512 803.563 162.334 803.563 164.453V181.818H795.999V165.803C796.011 164.134 795.585 162.832 794.721 161.896C793.856 160.95 792.667 160.476 791.152 160.476C790.134 160.476 789.234 160.695 788.453 161.133C787.683 161.571 787.08 162.21 786.642 163.051C786.216 163.879 785.997 164.879 785.985 166.051ZM819.453 182.351C816.648 182.351 814.233 181.783 812.209 180.646C810.197 179.498 808.646 177.877 807.557 175.781C806.468 173.674 805.923 171.183 805.923 168.306C805.923 165.501 806.468 163.039 807.557 160.92C808.646 158.801 810.179 157.15 812.156 155.966C814.144 154.782 816.476 154.191 819.151 154.191C820.951 154.191 822.626 154.481 824.176 155.061C825.739 155.629 827.1 156.487 828.26 157.635C829.432 158.783 830.343 160.227 830.994 161.968C831.646 163.696 831.971 165.72 831.971 168.04V170.117H808.942V165.43H824.851C824.851 164.341 824.614 163.376 824.141 162.536C823.667 161.695 823.01 161.038 822.17 160.565C821.341 160.079 820.377 159.837 819.276 159.837C818.128 159.837 817.11 160.103 816.222 160.636C815.346 161.157 814.659 161.861 814.162 162.749C813.665 163.625 813.41 164.601 813.399 165.678V170.135C813.399 171.485 813.647 172.651 814.144 173.633C814.653 174.615 815.369 175.373 816.293 175.906C817.216 176.438 818.311 176.705 819.578 176.705C820.418 176.705 821.187 176.586 821.886 176.35C822.584 176.113 823.182 175.758 823.679 175.284C824.176 174.811 824.555 174.231 824.816 173.544L831.811 174.006C831.456 175.687 830.728 177.155 829.627 178.409C828.538 179.652 827.13 180.623 825.401 181.321C823.685 182.008 821.702 182.351 819.453 182.351Z" fill="black"/>
<path d="M3.16051 119.818V83.4547H10.8487V113.48H26.4382V119.818H3.16051ZM41.3166 120.351C38.5112 120.351 36.0964 119.783 34.0723 118.646C32.06 117.498 30.5093 115.877 29.4203 113.781C28.3313 111.674 27.7868 109.183 27.7868 106.306C27.7868 103.501 28.3313 101.039 29.4203 98.9199C30.5093 96.8011 32.0422 95.1498 34.019 93.9661C36.0076 92.7824 38.3395 92.1905 41.0147 92.1905C42.814 92.1905 44.4889 92.4805 46.0396 93.0605C47.6021 93.6287 48.9634 94.4869 50.1234 95.6351C51.2953 96.7833 52.2067 98.2274 52.8578 99.9675C53.5088 101.696 53.8343 103.72 53.8343 106.04V108.117H30.8052V103.43H46.7143C46.7143 102.341 46.4776 101.376 46.0041 100.536C45.5306 99.6953 44.8736 99.0383 44.0332 98.5648C43.2046 98.0795 42.2399 97.8368 41.139 97.8368C39.9908 97.8368 38.9728 98.1032 38.085 98.6358C37.2091 99.1567 36.5225 99.861 36.0254 100.749C35.5282 101.625 35.2737 102.601 35.2619 103.678V108.135C35.2619 109.485 35.5105 110.651 36.0076 111.633C36.5166 112.615 37.2328 113.373 38.1561 113.906C39.0794 114.438 40.1743 114.705 41.4409 114.705C42.2813 114.705 43.0507 114.586 43.7491 114.35C44.4475 114.113 45.0453 113.758 45.5424 113.284C46.0396 112.811 46.4184 112.231 46.6788 111.544L53.6745 112.006C53.3194 113.687 52.5914 115.155 51.4906 116.409C50.4016 117.652 48.993 118.623 47.2647 119.321C45.5484 120.008 43.5656 120.351 41.3166 120.351ZM64.0474 120.333C62.3073 120.333 60.7567 120.031 59.3954 119.428C58.0341 118.812 56.957 117.907 56.1639 116.711C55.3826 115.504 54.992 114 54.992 112.201C54.992 110.686 55.2702 109.414 55.8265 108.384C56.3829 107.354 57.1404 106.525 58.0993 105.898C59.0581 105.271 60.1471 104.797 61.3663 104.477C62.5974 104.158 63.8876 103.933 65.237 103.803C66.8232 103.637 68.1016 103.483 69.0723 103.341C70.0429 103.187 70.7472 102.962 71.1852 102.666C71.6232 102.37 71.8421 101.932 71.8421 101.352V101.246C71.8421 100.121 71.487 99.2514 70.7768 98.6358C70.0784 98.0203 69.0841 97.7125 67.7939 97.7125C66.4326 97.7125 65.3495 98.0144 64.5446 98.6181C63.7396 99.2099 63.207 99.9557 62.9466 100.855L55.9508 100.287C56.3059 98.6299 57.0043 97.1976 58.046 95.9902C59.0877 94.771 60.4312 93.8359 62.0765 93.1848C63.7337 92.522 65.6513 92.1905 67.8294 92.1905C69.3445 92.1905 70.7946 92.3681 72.1795 92.7232C73.5763 93.0783 74.8133 93.6287 75.8904 94.3745C76.9795 95.1202 77.8376 96.079 78.465 97.2509C79.0924 98.4109 79.4061 99.8018 79.4061 101.423V119.818H72.2328V116.036H72.0197C71.5817 116.889 70.9958 117.64 70.2619 118.291C69.528 118.931 68.6461 119.434 67.6163 119.801C66.5865 120.156 65.3968 120.333 64.0474 120.333ZM66.2136 115.113C67.3263 115.113 68.3088 114.894 69.161 114.456C70.0133 114.006 70.6821 113.403 71.1674 112.645C71.6528 111.887 71.8954 111.029 71.8954 110.07V107.176C71.6587 107.33 71.3332 107.472 70.9189 107.602C70.5164 107.721 70.0607 107.833 69.5517 107.94C69.0427 108.035 68.5337 108.123 68.0247 108.206C67.5157 108.277 67.054 108.342 66.6397 108.401C65.7519 108.532 64.9766 108.739 64.3137 109.023C63.6509 109.307 63.1359 109.692 62.769 110.177C62.402 110.651 62.2186 111.242 62.2186 111.953C62.2186 112.982 62.5914 113.77 63.3372 114.314C64.0948 114.847 65.0536 115.113 66.2136 115.113ZM82.7743 119.818V92.5456H90.1074V97.3042H90.3915C90.8887 95.6114 91.7232 94.333 92.8951 93.4689C94.0669 92.593 95.4164 92.155 96.9434 92.155C97.3221 92.155 97.7305 92.1787 98.1685 92.226C98.6065 92.2734 98.9912 92.3385 99.3226 92.4213V99.133C98.9675 99.0265 98.4763 98.9318 97.8489 98.8489C97.2215 98.766 96.6474 98.7246 96.1266 98.7246C95.0139 98.7246 94.0196 98.9673 93.1436 99.4526C92.2795 99.9261 91.593 100.589 91.084 101.441C90.5868 102.293 90.3382 103.276 90.3382 104.389V119.818H82.7743ZM108.297 104.051V119.818H100.733V92.5456H107.942V97.3574H108.262C108.865 95.7712 109.877 94.5165 111.298 93.5932C112.718 92.6581 114.441 92.1905 116.465 92.1905C118.359 92.1905 120.01 92.6048 121.419 93.4334C122.827 94.262 123.922 95.4457 124.703 96.9846C125.485 98.5115 125.875 100.334 125.875 102.453V119.818H118.311V103.803C118.323 102.134 117.897 100.832 117.033 99.8965C116.169 98.9495 114.979 98.476 113.464 98.476C112.446 98.476 111.547 98.695 110.765 99.133C109.996 99.571 109.392 100.21 108.954 101.051C108.528 101.879 108.309 102.879 108.297 104.051ZM129.337 119.818V92.5456H136.901V119.818H129.337ZM133.137 89.03C132.012 89.03 131.047 88.6571 130.242 87.9114C129.449 87.1538 129.053 86.2483 129.053 85.1948C129.053 84.1531 129.449 83.2594 130.242 82.5137C131.047 81.7561 132.012 81.3773 133.137 81.3773C134.261 81.3773 135.22 81.7561 136.013 82.5137C136.818 83.2594 137.22 84.1531 137.22 85.1948C137.22 86.2483 136.818 87.1538 136.013 87.9114C135.22 88.6571 134.261 89.03 133.137 89.03ZM148.024 104.051V119.818H140.46V92.5456H147.669V97.3574H147.988C148.592 95.7712 149.604 94.5165 151.024 93.5932C152.445 92.6581 154.167 92.1905 156.191 92.1905C158.085 92.1905 159.737 92.6048 161.145 93.4334C162.554 94.262 163.649 95.4457 164.43 96.9846C165.211 98.5115 165.602 100.334 165.602 102.453V119.818H158.038V103.803C158.05 102.134 157.624 100.832 156.76 99.8965C155.895 98.9495 154.706 98.476 153.191 98.476C152.173 98.476 151.273 98.695 150.492 99.133C149.722 99.571 149.119 100.21 148.681 101.051C148.255 101.879 148.036 102.879 148.024 104.051ZM181.35 130.614C178.9 130.614 176.799 130.276 175.047 129.602C173.307 128.939 171.922 128.033 170.892 126.885C169.862 125.737 169.194 124.447 168.886 123.014L175.882 122.073C176.095 122.618 176.432 123.127 176.894 123.6C177.355 124.074 177.965 124.453 178.722 124.737C179.492 125.033 180.427 125.181 181.528 125.181C183.173 125.181 184.529 124.778 185.594 123.973C186.671 123.18 187.21 121.848 187.21 119.978V114.989H186.89C186.559 115.746 186.061 116.463 185.399 117.137C184.736 117.812 183.883 118.362 182.842 118.789C181.8 119.215 180.557 119.428 179.113 119.428C177.065 119.428 175.201 118.954 173.52 118.007C171.851 117.048 170.519 115.587 169.525 113.622C168.543 111.645 168.051 109.147 168.051 106.129C168.051 103.039 168.554 100.459 169.561 98.3872C170.567 96.3158 171.904 94.7651 173.573 93.7353C175.254 92.7054 177.095 92.1905 179.095 92.1905C180.622 92.1905 181.901 92.4509 182.931 92.9718C183.96 93.4808 184.789 94.12 185.416 94.8894C186.056 95.647 186.547 96.3927 186.89 97.1266H187.174V92.5456H194.685V120.085C194.685 122.405 194.117 124.346 192.98 125.909C191.844 127.471 190.27 128.643 188.257 129.424C186.257 130.217 183.954 130.614 181.35 130.614ZM181.51 113.746C182.729 113.746 183.759 113.444 184.6 112.84C185.452 112.225 186.103 111.349 186.553 110.213C187.014 109.064 187.245 107.691 187.245 106.093C187.245 104.495 187.02 103.11 186.57 101.938C186.121 100.755 185.47 99.8373 184.617 99.1863C183.765 98.5352 182.729 98.2097 181.51 98.2097C180.267 98.2097 179.22 98.547 178.367 99.2218C177.515 99.8846 176.87 100.808 176.432 101.992C175.994 103.175 175.775 104.543 175.775 106.093C175.775 107.668 175.994 109.029 176.432 110.177C176.882 111.313 177.527 112.195 178.367 112.823C179.22 113.438 180.267 113.746 181.51 113.746ZM207.418 119.818V83.4547H221.765C224.523 83.4547 226.873 83.9815 228.814 85.035C230.755 86.0766 232.235 87.5267 233.253 89.3851C234.283 91.2317 234.798 93.3624 234.798 95.7772C234.798 98.1919 234.277 100.323 233.235 102.169C232.193 104.016 230.684 105.454 228.707 106.484C226.742 107.514 224.363 108.029 221.57 108.029H212.425V101.867H220.327C221.806 101.867 223.026 101.613 223.984 101.104C224.955 100.583 225.677 99.8669 226.151 98.9554C226.636 98.0321 226.879 96.9727 226.879 95.7772C226.879 94.5698 226.636 93.5163 226.151 92.6167C225.677 91.7052 224.955 91.0009 223.984 90.5037C223.014 89.9947 221.783 89.7402 220.291 89.7402H215.107V119.818H207.418ZM244.713 83.4547V119.818H237.149V83.4547H244.713ZM256.049 120.333C254.309 120.333 252.759 120.031 251.397 119.428C250.036 118.812 248.959 117.907 248.166 116.711C247.385 115.504 246.994 114 246.994 112.201C246.994 110.686 247.272 109.414 247.828 108.384C248.385 107.354 249.142 106.525 250.101 105.898C251.06 105.271 252.149 104.797 253.368 104.477C254.599 104.158 255.89 103.933 257.239 103.803C258.825 103.637 260.104 103.483 261.074 103.341C262.045 103.187 262.749 102.962 263.187 102.666C263.625 102.37 263.844 101.932 263.844 101.352V101.246C263.844 100.121 263.489 99.2514 262.779 98.6358C262.08 98.0203 261.086 97.7125 259.796 97.7125C258.435 97.7125 257.351 98.0144 256.547 98.6181C255.742 99.2099 255.209 99.9557 254.948 100.855L247.953 100.287C248.308 98.6299 249.006 97.1976 250.048 95.9902C251.09 94.771 252.433 93.8359 254.078 93.1848C255.736 92.522 257.653 92.1905 259.831 92.1905C261.346 92.1905 262.797 92.3681 264.181 92.7232C265.578 93.0783 266.815 93.6287 267.892 94.3745C268.981 95.1202 269.84 96.079 270.467 97.2509C271.094 98.4109 271.408 99.8018 271.408 101.423V119.818H264.235V116.036H264.022C263.584 116.889 262.998 117.64 262.264 118.291C261.53 118.931 260.648 119.434 259.618 119.801C258.588 120.156 257.399 120.333 256.049 120.333ZM258.216 115.113C259.328 115.113 260.311 114.894 261.163 114.456C262.015 114.006 262.684 113.403 263.169 112.645C263.655 111.887 263.897 111.029 263.897 110.07V107.176C263.661 107.33 263.335 107.472 262.921 107.602C262.518 107.721 262.063 107.833 261.554 107.94C261.045 108.035 260.536 108.123 260.027 108.206C259.518 108.277 259.056 108.342 258.642 108.401C257.754 108.532 256.979 108.739 256.316 109.023C255.653 109.307 255.138 109.692 254.771 110.177C254.404 110.651 254.221 111.242 254.221 111.953C254.221 112.982 254.593 113.77 255.339 114.314C256.097 114.847 257.056 115.113 258.216 115.113ZM289.283 92.5456V98.2274H272.859V92.5456H289.283ZM276.587 86.0115H284.151V111.438C284.151 112.136 284.258 112.681 284.471 113.071C284.684 113.45 284.98 113.716 285.359 113.87C285.749 114.024 286.199 114.101 286.708 114.101C287.063 114.101 287.418 114.071 287.773 114.012C288.129 113.941 288.401 113.888 288.59 113.852L289.78 119.481C289.401 119.599 288.868 119.735 288.182 119.889C287.495 120.055 286.661 120.156 285.678 120.191C283.855 120.262 282.257 120.02 280.884 119.463C279.523 118.907 278.464 118.043 277.706 116.871C276.948 115.699 276.576 114.219 276.587 112.432V86.0115ZM306.376 92.5456V98.2274H289.544V92.5456H306.376ZM293.397 119.818V90.5747C293.397 88.5979 293.781 86.9585 294.551 85.6564C295.332 84.3543 296.397 83.3778 297.747 82.7267C299.096 82.0757 300.629 81.7502 302.346 81.7502C303.506 81.7502 304.565 81.839 305.524 82.0165C306.494 82.1941 307.216 82.3539 307.69 82.4959L306.341 88.1777C306.045 88.083 305.678 87.9943 305.24 87.9114C304.814 87.8285 304.376 87.7871 303.926 87.7871C302.813 87.7871 302.038 88.0475 301.6 88.5684C301.162 89.0774 300.943 89.7935 300.943 90.7168V119.818H293.397ZM319.843 120.351C317.085 120.351 314.7 119.765 312.687 118.593C310.687 117.41 309.142 115.764 308.053 113.657C306.964 111.538 306.42 109.082 306.42 106.289C306.42 103.471 306.964 101.009 308.053 98.9022C309.142 96.7833 310.687 95.138 312.687 93.9661C314.7 92.7824 317.085 92.1905 319.843 92.1905C322.601 92.1905 324.98 92.7824 326.981 93.9661C328.993 95.138 330.544 96.7833 331.633 98.9022C332.722 101.009 333.266 103.471 333.266 106.289C333.266 109.082 332.722 111.538 331.633 113.657C330.544 115.764 328.993 117.41 326.981 118.593C324.98 119.765 322.601 120.351 319.843 120.351ZM319.878 114.492C321.133 114.492 322.181 114.137 323.021 113.426C323.862 112.704 324.495 111.722 324.921 110.479C325.359 109.236 325.578 107.821 325.578 106.235C325.578 104.649 325.359 103.235 324.921 101.992C324.495 100.749 323.862 99.7663 323.021 99.0442C322.181 98.3221 321.133 97.9611 319.878 97.9611C318.612 97.9611 317.546 98.3221 316.682 99.0442C315.83 99.7663 315.185 100.749 314.747 101.992C314.321 103.235 314.108 104.649 314.108 106.235C314.108 107.821 314.321 109.236 314.747 110.479C315.185 111.722 315.83 112.704 316.682 113.426C317.546 114.137 318.612 114.492 319.878 114.492ZM335.684 119.818V92.5456H343.018V97.3042H343.302C343.799 95.6114 344.633 94.333 345.805 93.4689C346.977 92.593 348.327 92.155 349.853 92.155C350.232 92.155 350.641 92.1787 351.079 92.226C351.517 92.2734 351.901 92.3385 352.233 92.4213V99.133C351.878 99.0265 351.386 98.9318 350.759 98.8489C350.132 98.766 349.558 98.7246 349.037 98.7246C347.924 98.7246 346.93 98.9673 346.054 99.4526C345.19 99.9261 344.503 100.589 343.994 101.441C343.497 102.293 343.248 103.276 343.248 104.389V119.818H335.684ZM353.643 119.818V92.5456H360.852V97.3574H361.172C361.74 95.7594 362.687 94.4988 364.013 93.5755C365.339 92.6522 366.925 92.1905 368.771 92.1905C370.642 92.1905 372.234 92.6581 373.548 93.5932C374.861 94.5165 375.737 95.7712 376.175 97.3574H376.459C377.016 95.7949 378.022 94.5461 379.478 93.611C380.946 92.664 382.68 92.1905 384.68 92.1905C387.225 92.1905 389.291 93.0014 390.877 94.623C392.475 96.2329 393.274 98.5175 393.274 101.477V119.818H385.728V102.968C385.728 101.453 385.325 100.317 384.521 99.5591C383.716 98.8015 382.709 98.4228 381.502 98.4228C380.129 98.4228 379.058 98.8607 378.288 99.7367C377.519 100.601 377.134 101.743 377.134 103.164V119.818H369.801V102.808C369.801 101.471 369.416 100.405 368.647 99.6124C367.889 98.8193 366.889 98.4228 365.646 98.4228C364.806 98.4228 364.048 98.6358 363.374 99.062C362.711 99.4763 362.184 100.062 361.793 100.82C361.403 101.566 361.207 102.441 361.207 103.448V119.818H353.643Z" fill="black"/>
<path d="M437.68 66.9H423.48V76.4V79.1H437.68V66.9ZM449.18 89.7H423.08C422.28 102.2 420.18 115.9 414.58 125.2C412.58 123.1 407.48 119.1 404.88 117.7C411.28 106.2 411.68 89.4 411.68 76.4V40.3H411.78C423.68 38.9 437.08 36.3 445.68 33.2L453.28 43.3C444.58 46.1 433.78 48 423.48 49.2V56.3H449.18V89.7ZM499.58 64.6V76.1H490.48V124H478.68V76.1H468.28C467.88 92 464.48 112.5 450.48 125C448.58 122.7 443.68 118.5 441.18 116.9C454.98 104.5 456.18 85.9 456.18 71.5V40.4C468.38 38.8 481.88 35.9 490.58 32.5L498.28 42.8C489.58 45.8 478.68 48 468.38 49.4V64.6H499.58ZM573.58 79.2V72.9H537.68V79.2H573.58ZM537.48 95.6H573.58V89.1H537.68C537.68 91.2 537.58 93.3 537.48 95.6ZM596.38 54.5H542.68C541.58 57.2 540.18 59.8 538.68 62.4H585.18V111.8C585.18 117.7 584.08 120.9 579.98 122.7C576.08 124.6 570.38 124.7 562.28 124.7C561.78 121.4 560.18 116.4 558.68 113.2C563.78 113.5 569.58 113.5 571.28 113.5C572.98 113.4 573.58 112.9 573.58 111.5V105.5H535.98C534.28 113 531.08 120.3 524.88 125.4C523.28 122.9 518.78 117.9 516.28 116.3C524.88 108.8 525.58 98.1 525.58 88.8V80.7C521.78 84.7 517.78 88.4 513.18 91.6C511.38 88.9 507.68 84.6 505.38 82.4C515.48 75.7 523.48 65.6 529.38 54.5H507.68V43.3H534.48C536.08 39.2 537.38 35.2 538.48 31.2L550.78 34C549.78 37.1 548.68 40.2 547.58 43.3H596.38V54.5ZM642.98 31.4H656.68C656.58 35.6 656.38 41 655.98 47C657.38 60.5 663.48 98.2 698.38 113.6C694.68 116.5 691.28 120.5 689.68 123.9C667.48 113.3 656.38 93.8 650.58 76.6C645.08 94.2 634.58 112.3 613.78 124.5C611.68 121.3 607.88 117.5 603.88 114.8C644.48 93.1 642.58 48.3 642.98 31.4ZM718.08 103.9H733.98V84.3H718.08V103.9ZM733.98 74V57.8H718.08V74H733.98ZM765.68 46.7H793.88C793.88 46.7 793.88 50.7 793.78 52.1C792.48 96.8 791.38 112.7 787.28 118C784.48 121.7 781.68 122.8 777.68 123.5C773.88 124 767.88 123.9 761.98 123.7C761.78 120.4 760.18 115.4 758.08 112.1C764.48 112.7 770.38 112.7 772.98 112.7C774.98 112.7 776.08 112.3 777.38 111C780.28 107.8 781.58 92.8 782.68 57.5H761.28C758.68 63.5 755.58 69 752.48 73.3C750.88 71.8 747.48 69.5 744.78 67.7V114.4H718.08V121.7H707.28V47.4H718.58C719.88 42.4 721.08 36 721.48 31.3L734.48 33.1C732.78 38.1 730.98 43.1 729.28 47.4H744.78V63.6C750.58 55.2 755.38 43.1 758.28 31.4L769.58 34C768.58 38.3 767.18 42.5 765.68 46.7ZM777.28 92.3L767.18 98.5C764.38 92.5 758.18 82.7 753.28 75.4L762.58 70.1C767.58 77 774.18 86.5 777.28 92.3Z" fill="white"/>
</svg>
